<?xml version="1.0" encoding="utf-8"?>
<!-- Generator: Adobe Illustrator 24.1.1, SVG Export Plug-In . SVG Version: 6.00 Build 0)  -->
<svg version="1.1" id="Capa_1" xmlns="http://www.w3.org/2000/svg" xmlns:xlink="http://www.w3.org/1999/xlink" x="0px" y="0px"
	 viewBox="0 0 512 512" style="enable-background:new 0 0 512 512;" xml:space="preserve">
<style type="text/css">
	.st0{fill:#5A5A5A;}
	.st1{fill:#444444;}
	.st2{fill:#6E6E6E;}
	.st3{fill:#667EEA;}
	.st4{fill:#764BA2;}
</style>
<path class="st0" d="M361,76v30c0,8.4-6.6,15-15,15h-15V76c0-8.4-6.6-15-15-15H196c-8.4,0-15,6.6-15,15v45h-15c-8.4,0-15-6.6-15-15
	V76c0-24.9,20.1-45,45-45h120C340.9,31,361,51.1,361,76z"/>
<path class="st1" d="M316,61h-60V31h60c24.9,0,45,20.1,45,45v30c0,8.4-6.6,15-15,15h-15V76C331,67.6,324.4,61,316,61z"/>
<path class="st0" d="M512,106v330c0,24.9-20.1,45-45,45H45c-24.9,0-45-20.1-45-45V106c0-4.2,1.8-7.8,4.5-10.5L81,267.7h350
	l76.5-172.2C510.2,98.2,512,101.8,512,106z"/>
<path class="st1" d="M512,106v330c0,24.9-20.1,45-45,45H256V267.7h175l76.5-172.2C510.2,98.2,512,101.8,512,106z"/>
<path class="st2" d="M507.5,95.5L461,267.7c-5.4,19.8-23.1,33.3-43.5,33.3h-323c-20.4,0-38.1-13.5-43.5-33.3L4.5,95.5
	C7.2,92.8,10.8,91,15,91h482C501.2,91,504.8,92.8,507.5,95.5z"/>
<path class="st0" d="M507.5,95.5L461,267.7c-5.4,19.8-23.1,33.3-43.5,33.3H256V91h241C501.2,91,504.8,92.8,507.5,95.5z"/>
<path class="st3" d="M316,256H196c-8.4,0-15,6.6-15,15v60c0,8.4,6.6,15,15,15h120c8.4,0,15-6.6,15-15v-60
	C331,262.6,324.4,256,316,256z"/>
<path class="st4" d="M331,271v60c0,8.4-6.6,15-15,15h-60v-90h60C324.4,256,331,262.6,331,271z"/>
</svg>
